<?xml version="1.0" standalone="no"?>
<!DOCTYPE svg PUBLIC "-//W3C//DTD SVG 20010904//EN"
 "http://www.w3.org/TR/2001/REC-SVG-20010904/DTD/svg10.dtd">
<svg version="1.0" xmlns="http://www.w3.org/2000/svg"
 width="500.000000pt" height="500.000000pt" viewBox="0 0 500.000000 500.000000"
 preserveAspectRatio="xMidYMid meet">
<metadata>
Created by potrace 1.11, written by Peter Selinger 2001-2013
</metadata>
<g transform="translate(0.000000,500.000000) scale(0.100000,-0.100000)"
fill="#000000" stroke="none">
<path d="M3610 4482 c-18 -15 -22 -29 -24 -82 -2 -35 2 -91 8 -124 20 -109 6
-164 -41 -166 -13 0 -63 71 -63 89 0 16 -41 20 -47 5 -11 -29 70 -224 118
-283 28 -35 33 -48 44 -111 18 -105 17 -110 -10 -120 -14 -5 -25 -16 -25 -25
0 -17 38 -164 46 -177 3 -5 -4 -16 -15 -26 l-20 -17 24 -93 c32 -127 36 -151
41 -277 5 -103 31 -224 55 -249 5 -6 9 -16 9 -24 0 -8 9 -27 20 -42 22 -31 51
-102 54 -135 2 -11 7 -47 11 -80 10 -66 8 -97 -7 -106 -5 -3 -8 -47 -7 -97 l3
-92 -61 -57 c-63 -61 -89 -102 -118 -193 -24 -74 -30 -81 -74 -75 -128 18
-120 19 -132 -9 -10 -22 -9 -33 5 -62 15 -33 15 -38 1 -60 -12 -19 -24 -24
-59 -24 -29 0 -65 -11 -106 -31 -34 -16 -69 -29 -78 -27 -11 2 -31 40 -58 113
-46 119 -50 125 -184 223 -25 18 -66 48 -92 67 -38 28 -79 45 -78 33 0 -2 14
-41 30 -88 16 -47 30 -104 30 -127 0 -23 9 -59 19 -80 11 -21 22 -57 25 -81 4
-36 0 -47 -21 -68 -30 -30 -50 -25 -59 13 -3 15 -11 42 -17 58 -6 17 -12 35
-12 40 -1 9 -17 100 -21 118 -1 4 -2 13 -3 21 0 7 -12 29 -25 49 -13 19 -34
63 -46 98 -24 68 -46 119 -118 269 -77 164 -110 247 -121 304 -24 132 -77 187
-254 264 -81 35 -151 75 -212 120 -49 37 -92 69 -95 72 -3 3 -23 18 -45 34
-22 16 -58 46 -80 65 -22 20 -67 59 -99 86 -33 28 -64 55 -70 60 -6 6 -36 30
-66 55 -30 25 -57 47 -60 51 -3 3 -36 27 -74 53 -53 37 -75 47 -95 43 -39 -8
-49 2 -62 63 -6 30 -19 69 -29 86 -14 24 -17 47 -14 95 8 127 21 170 62 210
90 86 60 260 -49 284 -53 12 -133 -51 -208 -165 -58 -90 -61 -93 -77 -130 -8
-19 -21 -48 -29 -65 -14 -31 -21 -76 -30 -179 -7 -81 -13 -113 -29 -151 -14
-32 -48 -60 -59 -49 -15 15 -48 -24 -90 -108 -41 -82 -46 -100 -46 -158 0 -35
5 -72 10 -81 12 -23 81 -49 128 -49 21 0 60 -10 86 -21 32 -14 71 -22 115 -23
67 -1 100 -15 100 -42 0 -7 26 -32 58 -56 76 -57 97 -68 127 -68 25 0 62 -28
81 -63 6 -11 25 -19 48 -21 30 -2 44 -11 74 -47 48 -58 144 -153 212 -209 122
-101 138 -121 169 -205 16 -44 64 -152 106 -239 114 -235 112 -257 -21 -182
-47 26 -97 46 -124 50 -25 2 -56 7 -70 11 -33 7 -217 7 -255 0 -39 -8 -193
-13 -498 -16 l-249 -2 -8 -23 c-10 -26 -32 -24 -63 8 -10 10 -24 18 -33 18
-20 0 -37 46 -24 70 5 10 20 20 33 24 13 3 36 17 50 32 23 23 26 33 23 81 -3
42 -10 62 -33 91 -43 53 -84 55 -166 8 -98 -55 -115 -74 -150 -161 -41 -103
-56 -123 -96 -130 -50 -9 -85 -30 -125 -77 -31 -36 -36 -49 -36 -91 0 -58 18
-126 34 -128 51 -6 100 -5 151 2 33 5 80 11 105 15 25 3 55 10 68 15 36 14
159 11 168 -3 5 -7 7 -24 6 -38 -1 -23 7 -28 82 -57 97 -38 97 -38 161 -16 71
24 174 6 304 -54 19 -9 69 -17 111 -19 75 -3 196 -30 240 -54 32 -17 118 -5
153 21 36 26 48 21 87 -36 36 -52 42 -72 29 -97 -7 -13 -2 -23 16 -41 14 -13
33 -37 43 -54 21 -40 108 -156 144 -194 15 -16 43 -62 62 -103 103 -223 241
-355 406 -386 28 -5 57 -13 63 -17 7 -4 38 -6 69 -5 l57 2 58 -60 c31 -33 67
-63 80 -66 13 -4 38 3 63 17 31 18 45 21 58 13 11 -8 23 -7 42 2 86 43 125 60
211 90 53 18 119 36 145 39 66 8 136 33 279 98 66 30 131 57 145 61 14 5 57
23 95 41 39 19 90 42 115 53 72 32 240 184 359 327 36 44 70 82 76 84 5 2 32
26 60 53 32 31 64 52 90 59 100 25 114 48 119 200 2 63 7 121 11 130 3 10 39
34 79 54 41 20 85 48 100 61 50 47 107 132 110 165 2 19 7 52 12 74 11 53 8
68 -29 145 -59 122 -267 300 -350 300 -16 0 -37 -13 -58 -34 -18 -19 -66 -51
-106 -72 -41 -20 -81 -48 -90 -60 -8 -13 -20 -24 -27 -23 -17 0 -95 115 -111
164 -9 24 -18 73 -20 110 -5 56 -10 70 -32 89 -20 17 -27 33 -28 67 -2 24 -8
59 -13 77 -8 24 -7 42 2 70 12 35 11 39 -16 74 -17 20 -31 51 -33 70 -2 18
-19 74 -38 123 -19 50 -42 115 -52 145 -25 75 -73 180 -83 180 -5 0 -9 6 -10
13 -3 42 -44 174 -57 183 -22 17 -34 74 -40 204 -2 47 -7 117 -11 155 -11 116
-11 205 -1 250 13 55 -7 101 -42 97 -13 -1 -32 5 -41 13 -16 14 -19 14 -40 -3z"/>
</g>
</svg>
